<?xml version="1.0" encoding="utf-8"?><!-- Generator: Adobe Illustrator 21.0.0, SVG Export Plug-In . SVG Version: 6.00 Build 0)  --><!DOCTYPE svg PUBLIC "-//W3C//DTD SVG 1.1//EN" "http://www.w3.org/Graphics/SVG/1.1/DTD/svg11.dtd"><svg version="1.1" id="Layer_1" xmlns="http://www.w3.org/2000/svg" xmlns:xlink="http://www.w3.org/1999/xlink" x="0px" y="0px" width="400px" height="400px" viewBox="0 0 400 400" style="enable-background:new 0 0 400 400;" xml:space="preserve"><style type="text/css">
	.st0{fill:#58595B;}
	.st1{fill:#231F20;}
	.st2{fill:url(#SVGID_1_);}
	.st3{fill:url(#SVGID_2_);}
	.st4{fill:#FFFFFF;}
	.st5{fill:#1A171B;}
</style><path class="st0" d="M295.3,96.3c0,0,21.1-24.2,13.1-29.4c-5.7-3.8-13.1-3.6-33-6.6c-19.8-3-82-14.1-93.7-16.8
	c-13.7-3.2-30.5-9-41.9-7.5c-8.4,1.1-15.3,11-23.7,22.1C109.1,67.5,90,101,90,101l1.2,10.3L295.3,96.3z"/><ellipse transform="matrix(0.9368 -0.3498 0.3498 0.9368 -106.5765 69.2427)" class="st1" cx="138.4" cy="329.7" rx="16.4" ry="24.6"/><linearGradient id="SVGID_1_" gradientUnits="userSpaceOnUse" x1="169.1875" y1="361.5" x2="169.1875" y2="35.7" gradientTransform="matrix(1 0 0 -1 30.8125 400)"><stop offset="0" style="stop-color:#898B8D"/><stop offset="0.1626" style="stop-color:#848587"/><stop offset="0.3711" style="stop-color:#757677"/><stop offset="0.6045" style="stop-color:#5C5C5D"/><stop offset="0.8544" style="stop-color:#3A3839"/><stop offset="1" style="stop-color:#231F20"/></linearGradient><polygon class="st2" points="308.3,197.6 297.7,220.2 282.2,354.1 170.8,364.3 152.4,294.9 115.3,220.2 104.7,197.6 89.2,101 
	138,38.5 310.8,70.5 "/><linearGradient id="SVGID_2_" gradientUnits="userSpaceOnUse" x1="99.1875" y1="361.5" x2="99.1875" y2="35.7" gradientTransform="matrix(1 0 0 -1 30.8125 400)"><stop offset="0" style="stop-color:#626366"/><stop offset="1" style="stop-color:#231F20"/></linearGradient><polygon class="st3" points="138,38.5 162.2,197.5 151.6,220.2 170.8,364.3 149.8,355.3 138.7,311.8 125.3,298.3 115,220.2 
	104.6,197.6 89.2,101 "/><polygon class="st0" points="200.9,51.3 250.4,60.5 254.4,54.4 201,46.6 "/><ellipse transform="matrix(0.9087 -0.4174 0.4174 0.9087 -125.9006 86.4366)" class="st4" cx="134.7" cy="331.1" rx="2.7" ry="4.5"/><path class="st4" d="M129.5,337c0,0,0.9,5.3,6.4,7.2c4.9,1.6,7.4-2.9,5.8-2.1C135.7,345.3,129.9,339.2,129.5,337z"/><path class="st4" d="M193.6,290.9l4.1-0.2c2.3-0.1,4.4,0.5,4.5,3.1c0.1,1.7-0.8,3-2.5,3.3l3.4,5l-2.5,0.1l-3-4.8l-1.5,0.1l0.3,5
	l-2.1,0.1L193.6,290.9z M197.6,295.7c1.2-0.1,2.5-0.2,2.5-1.8c-0.1-1.4-1.4-1.5-2.5-1.4l-1.8,0.1l0.2,3.2L197.6,295.7z"/><path class="st4" d="M205.9,298.7c0.2,1.2,1.1,1.8,2.2,1.8c1-0.1,1.6-0.5,2.1-1.2l1.5,1c-0.9,1.2-2,1.7-3.3,1.8
	c-2.4,0.1-4.4-1.4-4.5-3.9s1.7-4.3,4.1-4.4c2.2-0.1,3.8,1.4,4,4.1v0.5L205.9,298.7z M209.9,297c-0.1-1.2-0.9-1.8-2.1-1.8
	c-1.2,0.1-1.9,0.8-2,2L209.9,297z"/><path class="st4" d="M219.1,295.7c-0.5-0.5-1-0.7-1.5-0.7c-1.5,0.1-2.3,1.3-2.2,2.5s1,2.3,2.5,2.3c0.6,0,1.2-0.3,1.5-0.8l1.4,1.4
	c-0.8,0.9-2.1,1.2-2.8,1.3c-2.4,0.1-4.4-1.4-4.5-3.9s1.7-4.3,4.1-4.4c1-0.1,2.1,0.2,2.9,1.1L219.1,295.7z"/><path class="st4" d="M225.5,292.8c2.4-0.1,4.4,1.4,4.5,3.9s-1.7,4.3-4.1,4.4c-2.4,0.1-4.4-1.4-4.5-3.9
	C221.2,294.7,223.1,292.9,225.5,292.8 M225.8,299.3c1.5-0.1,2.3-1.3,2.2-2.5s-1-2.3-2.5-2.3c-1.5,0.1-2.3,1.3-2.2,2.5
	C223.4,298.3,224.4,299.4,225.8,299.3"/><rect x="231.8" y="288" transform="matrix(0.9986 -5.364326e-02 5.364326e-02 0.9986 -15.4498 12.9123)" class="st4" width="2" height="12.5"/><path class="st4" d="M239.9,292c2.4-0.1,4.4,1.4,4.5,3.9s-1.7,4.3-4.1,4.4c-2.4,0.1-4.4-1.4-4.5-3.9
	C235.6,293.9,237.5,292.1,239.9,292 M240.2,298.5c1.5-0.1,2.3-1.3,2.2-2.5s-1-2.3-2.5-2.3c-1.5,0.1-2.3,1.3-2.2,2.5
	C237.8,297.5,238.8,298.6,240.2,298.5"/><polygon class="st4" points="255.4,291.4 257.6,291.2 260.1,296.6 260.1,296.6 261.8,291 263.9,290.9 259.8,302.8 257.7,302.9 
	259.2,299.2 "/><path class="st4" d="M254.2,291.4l-1.9,0.1l0.1,1.2l0,0c-0.6-0.9-1.7-1.3-2.8-1.2c-2.4,0.1-3.8,2-3.7,4.4c0.1,2.2,1.8,4,4.2,3.9
	c1-0.1,2-0.5,2.5-1.3l0,0l0.1,1.1c0,0.5-0.1,0.9-0.4,1.3v0.1c-0.5,0.8-1.5,1.2-2.5,1.3c-1.7,0.1-3-0.8-3.7-2.1
	c0.3,2.3,2.2,3.7,4.5,3.5c2.4-0.1,4.2-1.9,4.1-4.4C254.6,299.2,254.2,291.4,254.2,291.4 M250.3,297.9c-1.3,0.1-2.4-0.9-2.5-2.2
	c-0.1-1.4,0.8-2.4,2.2-2.5s2.4,0.8,2.5,2.2C252.6,296.8,251.8,297.8,250.3,297.9"/><g><path id="SVGID_3_" class="st4" d="M218.1,253.2l4.9-0.3c3.4-0.2,7.6,0.1,7.9,4.6c0.3,4.9-4.1,5.4-7.9,5.6l-4.3,0.2L218.1,253.2z
		 M211.1,247.8l1.9,35.6l6.7-0.4l-0.7-13.9l3.7-0.2l5.1,8.8l0,0c1.6,2.5,4.4,4.2,7.5,4.4c4,0.3,6.7-1.4,8.4-4.5
		c2.5-4.5,0.6-10-2-11.6c0,0,1.4,3,1.2,5.6c0,2.2-1.3,4.3-3.4,4.9c-2.1,0.7-4.3-0.4-5.5-1.9c-0.5-0.6-1.1-1.3-1.7-2.2
		c-0.2-0.3-1.6-2.6-2.7-4.5h0.2c5.5-1.1,8.4-5.2,8.1-10.7c-0.5-8.4-7.4-10.4-14.6-10L211.1,247.8z"/></g><path class="st4" d="M245.6,275.5c0,0,2.1-5.8,7-8.7C252.6,266.8,245.2,267.3,245.6,275.5 M248.1,261.8c-3.6,2.9-2.3,8.4-2.3,8.4
	C249.2,265.7,248.1,261.8,248.1,261.8"/><polygon class="st4" points="206.8,309.4 207.9,309.4 209.1,312.6 210,309.2 210.9,309.2 212.1,312.4 213,309.1 214.1,309 
	212.7,313.9 211.8,314 210.5,310.9 209.6,314.1 208.7,314.2 "/><path class="st4" d="M215.7,308.9l1-0.1l2.3,4.7l-1.1,0.1l-0.5-1l-2,0.1l-0.4,1.1l-1.1,0.1L215.7,308.9z M217,311.7l-0.7-1.5
	l-0.6,1.6L217,311.7z"/><path class="st4" d="M219.3,312.9l0.6-0.8c0.5,0.3,0.9,0.5,1.5,0.5c0.4,0,0.7-0.2,0.7-0.5l0,0c0-0.3-0.2-0.4-1-0.6
	c-1-0.2-1.6-0.4-1.7-1.4l0,0c0-0.9,0.6-1.5,1.6-1.5c0.7,0,1.3,0.1,1.8,0.5l-0.5,0.8c-0.4-0.3-0.9-0.4-1.3-0.4
	c-0.4,0-0.6,0.2-0.6,0.4l0,0c0,0.3,0.2,0.4,1.1,0.6c1,0.2,1.5,0.5,1.6,1.4l0,0c0.1,0.9-0.6,1.5-1.7,1.6
	C220.7,313.5,219.9,313.3,219.3,312.9"/><polygon class="st4" points="225,309.4 223.6,309.5 223.5,308.5 227.5,308.3 227.6,309.3 226.1,309.4 226.3,313.2 225.3,313.2 "/><polygon class="st4" points="228.3,308.3 231.9,308.1 232,309 229.4,309.2 229.5,310.1 231.7,310 231.8,310.9 229.5,311.1 
	229.6,312.1 232.2,311.9 232.2,312.9 228.6,313.1 "/><polygon class="st4" points="235.4,311.9 237.8,308.7 235.3,308.8 235.2,307.9 239.1,307.7 239.2,308.5 236.7,311.7 239.3,311.6 
	239.4,312.5 235.4,312.7 "/><polygon class="st4" points="240.3,307.6 243.9,307.4 244,308.4 241.4,308.5 241.4,309.5 243.7,309.4 243.7,310.3 241.5,310.4 
	241.5,311.4 244.1,311.3 244.2,312.2 240.6,312.4 "/><path class="st4" d="M245.1,307.4l2.2-0.1c0.6,0,1.1,0.1,1.4,0.4c0.3,0.3,0.4,0.6,0.5,1.1l0,0c0,0.8-0.3,1.3-0.9,1.5l1.3,1.6
	l-1.2,0.1l-1.1-1.5h-0.8l0.1,1.5l-1.1,0.1L245.1,307.4z M247.3,309.6c0.5,0,0.8-0.3,0.8-0.7l0,0c0-0.5-0.4-0.7-0.9-0.6l-1,0.1
	l0.1,1.4L247.3,309.6z"/><path class="st4" d="M250,309.5L250,309.5c-0.1-1.4,0.9-2.5,2.4-2.6s2.6,1,2.7,2.3l0,0c0.1,1.4-0.9,2.5-2.4,2.6
	C251.1,311.9,250,310.9,250,309.5 M253.9,309.3L253.9,309.3c0-0.8-0.7-1.5-1.5-1.4c-0.8,0-1.4,0.7-1.4,1.6l0,0
	c0,0.8,0.7,1.5,1.5,1.4C253.4,310.8,254,310.1,253.9,309.3"/><path class="st4" d="M264.2,296.8c0.6,0,1.2,0.4,1.2,1.1c0,0.6-0.5,1.2-1.1,1.2s-1.2-0.4-1.2-1.1S263.6,296.8,264.2,296.8z
	 M264.3,298.8c0.5,0,0.9-0.5,0.9-1s-0.5-0.9-1-0.9s-0.9,0.5-0.9,1C263.3,298.5,263.8,298.9,264.3,298.8z M263.8,297.3h0.5
	c0.3,0,0.5,0.1,0.5,0.3c0,0.2-0.1,0.3-0.3,0.4l0.4,0.6h-0.2l-0.4-0.5h-0.2v0.6h-0.2L263.8,297.3z M264,297.8h0.2
	c0.2,0,0.3,0,0.3-0.2s-0.2-0.2-0.3-0.2h-0.3L264,297.8z"/><path class="st4" d="M246.6,278.8c0.8,0,1.4,0.5,1.5,1.3c0,0.8-0.6,1.4-1.3,1.5c-0.8,0-1.4-0.5-1.5-1.3S245.9,278.9,246.6,278.8z
	 M246.8,281.4c0.7,0,1.2-0.6,1.1-1.3c0-0.7-0.6-1.2-1.2-1.1c-0.7,0-1.2,0.6-1.1,1.3C245.6,281,246.1,281.5,246.8,281.4z
	 M246.1,279.5h0.6c0.4,0,0.6,0.1,0.6,0.4s-0.2,0.4-0.4,0.5l0.5,0.7h-0.2l-0.5-0.7h-0.3v0.7h-0.2L246.1,279.5z M246.4,280.2h0.3
	c0.2,0,0.4,0,0.4-0.3c0-0.2-0.2-0.2-0.4-0.2h-0.3V280.2z"/><path class="st5" d="M256.7,106.1c0,0,0.1-10.5-8.8-13.6c-8.8-3.1-9.9,8-7.8,6C248.1,91.3,256.1,101.9,256.7,106.1z"/><path class="st5" d="M203.7,95.6c0,0,2.2-14.4,15-16.7s11.9,13.2,9.3,10C218.9,77.2,205.6,90,203.7,95.6z"/><g><ellipse class="st4" cx="220.7" cy="115.2" rx="14.1" ry="19.1"/><path class="st5" d="M210.3,101.4c-2.7,3.7-4.2,8.6-4.2,13.8c0,10.8,6.6,19.6,14.6,19.6c8.1,0,14.6-8.8,14.6-19.6
		c0-5.2-1.5-10.1-4.2-13.8c-2.8-3.8-6.5-5.8-10.4-5.8C216.8,95.6,213.1,97.6,210.3,101.4z M207.2,115.2c0-5,1.4-9.7,4-13.2
		s5.9-5.4,9.5-5.4s6.9,1.9,9.5,5.4s4,8.2,4,13.2c0,10.3-6.1,18.6-13.5,18.6S207.2,125.4,207.2,115.2z"/></g><g><path class="st5" d="M227.1,120.8c-0.3-3-2.9-5.1-5.7-4.8c-2.8,0.3-4.9,2.9-4.6,5.9c0.3,3,2.9,5.1,5.7,4.8
		C225.3,126.4,227.4,123.8,227.1,120.8z"/></g><g><ellipse class="st4" cx="246.4" cy="122" rx="11.1" ry="12.5"/><path class="st5" d="M238.1,113c-2.2,2.4-3.3,5.6-3.3,9c0,7.1,5.2,12.8,11.6,12.8c6.4,0,11.6-5.8,11.6-12.8c0-3.4-1.2-6.6-3.3-9
		c-2.2-2.5-5.1-3.8-8.2-3.8C243.2,109.2,240.3,110.6,238.1,113z M235.7,122c0-3.3,1.1-6.4,3.2-8.7c2-2.3,4.7-3.5,7.5-3.5
		s5.5,1.3,7.5,3.5c2.1,2.3,3.2,5.4,3.2,8.7c0,6.7-4.8,12.2-10.7,12.2C240.5,134.2,235.7,128.8,235.7,122z"/></g><g><path class="st5" d="M250.8,121.8c-0.3-2.7-2.5-4.6-4.9-4.3c-2.5,0.3-4.2,2.6-4,5.3c0.3,2.7,2.5,4.6,4.9,4.3
		C249.3,126.9,251.1,124.5,250.8,121.8z"/></g><g><path class="st5" d="M253.5,163.6c0,0-0.3-0.4-7.9,1.2c-8.4,1.8-16.8,1.5-25.8-5.2c-5.9-4.4-11-5-11-5s7,1.2,8.3,4.2
		c1.4,3,3,14.8,12.4,15.9c6.8,0.8,9.5-4.9,14.3-7.9C248.7,163.9,251.4,163.3,253.5,163.6z"/><path class="st5" d="M253.6,162.9L253.6,162.9L253.6,162.9c-0.2,0-0.6-0.1-1.3,0c-0.6,0-1.2,0.1-1.8,0.3c-1.2,0.2-2.8,0.5-5,1
		c-6.7,1.4-15.6,2.1-25.3-5.1c-1.8-1.3-3.4-2.2-4.9-3c-1.1-0.6-2.3-1.1-3.4-1.4c-1.6-0.5-2.7-0.7-2.9-0.7l0,0l-0.2,1.2
		c0.3,0.1,0.8,0.2,1.3,0.3c0.2,0.1,0.4,0.1,0.7,0.2c0.1,0,0.3,0.1,0.4,0.1c1,0.3,2.2,0.8,3.6,1.5c0.8,0.5,1.5,1.1,1.8,1.7l0.8,2.3
		c1.4,4.6,4,13.1,12.1,14c5,0.6,7.9-2.1,10.7-4.8c1.2-1.1,2.5-2.3,3.9-3.2c2.5-1.5,4.3-2.4,5.8-2.8c1.7-0.3,2.6-0.4,3-0.4
		c0.2,0,0.3,0,0.4,0l1.5,0.2l-1-1.2C253.9,163.1,253.8,163,253.6,162.9z M245,165.5c-0.4,0.3-0.9,0.5-1.3,0.8
		c-1.5,1-2.9,2.2-4.1,3.4c-2.7,2.6-5.3,5-9.8,4.5c-7.3-0.9-9.7-8.6-11.1-13.2c0,0-0.4-1.1-0.6-1.8c0.5,0.3,1,0.6,1.5,1
		C229.2,167.4,238.1,166.9,245,165.5z"/></g><path class="st5" d="M255.3,168.2c0.2-2.9-1-4-1.8-6.2c3.3-1.4,2.1,4.9,1.3,6.6L255.3,168.2z"/><path class="st5" d="M207.2,158c1-2.7,2.5-3.3,4.2-4.9c-2.4-2.6-3.9,3.6-3.9,5.4L207.2,158z"/></svg>