<?xml version="1.0" encoding="utf-8"?><!-- Generator: Adobe Illustrator 21.0.0, SVG Export Plug-In . SVG Version: 6.00 Build 0)  --><!DOCTYPE svg PUBLIC "-//W3C//DTD SVG 1.1//EN" "http://www.w3.org/Graphics/SVG/1.1/DTD/svg11.dtd"><svg version="1.1" id="Layer_1" xmlns="http://www.w3.org/2000/svg" xmlns:xlink="http://www.w3.org/1999/xlink" x="0px" y="0px" width="400px" height="400px" viewBox="0 0 400 400" style="enable-background:new 0 0 400 400;" xml:space="preserve"><style type="text/css">
	.st0{fill:url(#SVGID_1_);}
	.st1{fill:#231F20;}
	.st2{fill:url(#SVGID_2_);}
	.st3{fill:url(#SVGID_3_);}
	.st4{fill:url(#SVGID_4_);}
	.st5{fill:#FFFFFF;}
	.st6{fill:#1A171B;}
</style><linearGradient id="SVGID_1_" gradientUnits="userSpaceOnUse" x1="230.9147" y1="288.5096" x2="230.9147" y2="367.2904" gradientTransform="matrix(-1 0 0 -1 431.0703 400)"><stop offset="0" style="stop-color:#1998D5"/><stop offset="1" style="stop-color:#035B80"/></linearGradient><path class="st0" d="M293.6,96.2c0,0,22.4-25.8,14.7-31.3c-7.6-5.5-14.7-2.5-34.1-5.5c-19.4-3.1-80.6-13.5-91.8-17.2
	c-11.2-3.7-25.9-11-39.4-9.2c-13.6,1.9-21.3,13.5-27.2,23.9s-25.3,46-25.3,46l2.9,8.6L293.6,96.2z"/><path class="st1" d="M125.2,336.7c3.4,11.9,12.9,20,21.2,18c8.3-2,12.2-13.2,8.8-25.1s-12.9-20-21.2-18
	C125.8,313.5,121.8,324.8,125.2,336.7z"/><linearGradient id="SVGID_2_" gradientUnits="userSpaceOnUse" x1="169.1875" y1="358.5096" x2="169.1875" y2="32.7096" gradientTransform="matrix(1 0 0 -1 30.8125 400)"><stop offset="0" style="stop-color:#1998D5"/><stop offset="0.3531" style="stop-color:#1896D3"/><stop offset="0.5419" style="stop-color:#1691CB"/><stop offset="0.6917" style="stop-color:#1387BD"/><stop offset="0.8212" style="stop-color:#0E79AA"/><stop offset="0.9363" style="stop-color:#076791"/><stop offset="1" style="stop-color:#035B80"/></linearGradient><polygon class="st2" points="308.5,201.6 298.1,221.6 284.8,355.9 170.9,367.3 152.5,297.9 114.8,221.6 104.7,201.6 89.2,104 
	138,41.5 310.9,73.5 "/><linearGradient id="SVGID_3_" gradientUnits="userSpaceOnUse" x1="99.1875" y1="358.5096" x2="99.1875" y2="32.7096" gradientTransform="matrix(1 0 0 -1 30.8125 400)"><stop offset="0" style="stop-color:#1998D5"/><stop offset="1" style="stop-color:#035B80"/></linearGradient><polygon class="st3" points="138,41.5 162.5,201.6 152.1,221.4 170.9,367.3 148.8,356.5 138.8,314.8 125.2,301.3 114.8,221.6 
	104.5,201.6 89.2,104 "/><linearGradient id="SVGID_4_" gradientUnits="userSpaceOnUse" x1="218.1305" y1="349.6006" x2="218.1305" y2="353.7051" gradientTransform="matrix(-0.9881 -0.1539 0.1927 -1.2382 371.4215 520.4754)"><stop offset="0" style="stop-color:#1998D5"/><stop offset="1" style="stop-color:#035B80"/></linearGradient><polygon class="st4" points="197.8,50.1 248.8,58 249.5,52.9 198.5,45 "/><ellipse transform="matrix(0.9463 -0.3232 0.3232 0.9463 -100.6303 61.7898)" class="st5" cx="135.7" cy="333.9" rx="2.3" ry="4"/><path class="st5" d="M133.5,341.4c0,0,0.6,4.5,4.7,5.9c3.6,1.3,5.6-2.6,4.4-1.8C138,348.3,133.6,343.3,133.5,341.4z"/><g><ellipse class="st5" cx="213" cy="120.3" rx="12.9" ry="15.1"/><path class="st6" d="M203.5,109.3c-2.5,2.9-3.9,6.8-3.9,10.9c0,8.6,6,15.5,13.4,15.5s13.4-7,13.4-15.5c0-4.1-1.4-8-3.9-10.9
		c-2.5-3-5.9-4.6-9.5-4.6S206,106.4,203.5,109.3z M200.6,120.3c0-4,1.3-7.7,3.7-10.5c2.3-2.7,5.4-4.3,8.7-4.3c3.3,0,6.3,1.5,8.7,4.3
		s3.7,6.5,3.7,10.5c0,8.1-5.5,14.7-12.4,14.7S200.6,128.4,200.6,120.3z"/></g><g><path class="st6" d="M218,120.5c-0.3-3-2.9-5.1-5.7-4.8c-2.8,0.3-4.9,2.9-4.6,5.9s2.9,5.1,5.7,4.8
		C216.4,126.1,218.4,123.4,218,120.5z"/></g><g><ellipse class="st5" cx="245.4" cy="121" rx="10.4" ry="12.1"/><path class="st6" d="M237.6,112.3c-2,2.3-3.1,5.4-3.1,8.7c0,6.8,4.9,12.4,10.8,12.4c5.9,0,10.8-5.6,10.8-12.4
		c0-3.3-1.1-6.4-3.1-8.7c-2-2.4-4.8-3.7-7.7-3.7C242.4,108.6,239.6,109.9,237.6,112.3z M235.4,121c0-3.2,1.1-6.1,3-8.4
		c1.9-2.2,4.4-3.4,7-3.4s5.1,1.2,7,3.4c1.9,2.2,3,5.2,3,8.4c0,6.5-4.5,11.8-10,11.8C239.8,132.8,235.4,127.5,235.4,121z"/></g><g><path class="st6" d="M249.5,121.8c-0.3-2.4-2.3-4.1-4.6-3.9c-2.3,0.2-4,2.4-3.7,4.8c0.3,2.4,2.3,4.1,4.6,3.9
		C248,126.3,249.6,124.2,249.5,121.8z"/></g><g><path class="st5" d="M195.5,293.9l4.1-0.2c2.3-0.1,4.4,0.5,4.5,3.1c0.1,1.7-0.8,3-2.5,3.3l3.4,5l-2.5,0.1l-3-4.8l-1.5,0.1l0.3,5
		l-2.1,0.1L195.5,293.9z M199.5,298.7c1.2-0.1,2.5-0.2,2.5-1.8c-0.1-1.4-1.4-1.5-2.5-1.4l-1.8,0.1l0.2,3.2L199.5,298.7z"/><path class="st5" d="M207.9,301.7c0.2,1.2,1.1,1.8,2.2,1.8c1-0.1,1.6-0.5,2.1-1.2l1.5,1c-0.9,1.2-2,1.7-3.3,1.8
		c-2.4,0.1-4.4-1.4-4.5-3.9s1.7-4.3,4.1-4.4c2.2-0.1,3.8,1.4,4,4.1v0.5L207.9,301.7z M211.9,300c-0.1-1.2-0.9-1.8-2.1-1.8
		c-1.2,0.1-1.9,0.8-2,2L211.9,300z"/><path class="st5" d="M221,298.7c-0.5-0.5-1-0.7-1.5-0.7c-1.5,0.1-2.3,1.3-2.2,2.5s1,2.3,2.5,2.3c0.6,0,1.2-0.3,1.5-0.8l1.4,1.4
		c-0.8,0.9-2.1,1.2-2.8,1.3c-2.4,0.1-4.4-1.4-4.5-3.9s1.7-4.3,4.1-4.4c1-0.1,2.1,0.2,2.9,1.1L221,298.7z"/><path class="st5" d="M227.5,295.8c2.4-0.1,4.4,1.4,4.5,3.9s-1.7,4.3-4.1,4.4s-4.4-1.4-4.5-3.9C223.1,297.7,225,295.9,227.5,295.8
		 M227.8,302.3c1.5-0.1,2.3-1.3,2.2-2.5s-1-2.3-2.5-2.3c-1.5,0.1-2.3,1.3-2.2,2.5C225.4,301.3,226.4,302.4,227.8,302.3"/><rect x="233.8" y="291" transform="matrix(0.9986 -5.311578e-02 5.311578e-02 0.9986 -15.4569 12.8886)" class="st5" width="2" height="12.5"/><path class="st5" d="M241.9,295c2.4-0.1,4.4,1.4,4.5,3.9s-1.7,4.3-4.1,4.4s-4.4-1.4-4.5-3.9C237.5,296.9,239.5,295.1,241.9,295
		 M242.1,301.6c1.5-0.1,2.3-1.3,2.2-2.5s-1-2.3-2.5-2.3c-1.5,0.1-2.3,1.3-2.2,2.5C239.8,300.5,240.8,301.6,242.1,301.6"/><polygon class="st5" points="257.4,294.4 259.5,294.3 262.1,299.6 262.1,299.6 263.8,294 265.9,293.9 261.8,305.8 259.6,305.9 
		261.1,302.2 	"/><path class="st5" d="M256.1,294.4l-1.9,0.1l0.1,1.2l0,0c-0.6-0.9-1.7-1.3-2.8-1.2c-2.4,0.1-3.8,2-3.7,4.4c0.1,2.2,1.8,4,4.2,3.9
		c1-0.1,2-0.5,2.5-1.3l0,0l0.1,1.1c0,0.5-0.1,0.9-0.4,1.3v0.1c-0.5,0.8-1.5,1.2-2.5,1.3c-1.7,0.1-3-0.8-3.7-2.1
		c0.3,2.3,2.2,3.7,4.5,3.5c2.4-0.1,4.2-1.9,4.1-4.4C256.5,302.2,256.1,294.4,256.1,294.4 M252.2,300.9c-1.3,0.1-2.4-0.9-2.5-2.2
		c-0.1-1.4,0.8-2.4,2.2-2.5s2.4,0.8,2.5,2.2C254.5,299.8,253.8,300.8,252.2,300.9"/></g><g><path id="SVGID_5_" class="st5" d="M220,256.2l4.9-0.3c3.5-0.2,7.6,0.1,7.9,4.6c0.3,4.9-4.1,5.4-7.9,5.6l-4.3,0.2L220,256.2z
		 M213,250.9l1.9,35.6l6.7-0.4l-0.7-13.9l3.7-0.2l5.1,8.8l0,0c1.6,2.5,4.4,4.2,7.5,4.4c4,0.3,6.7-1.4,8.4-4.5c2.5-4.5,0.6-10-2-11.6
		c0,0,1.4,3,1.2,5.6c0,2.2-1.3,4.3-3.4,4.9c-2.1,0.7-4.3-0.4-5.5-1.9c-0.5-0.6-1.1-1.3-1.7-2.2c-0.2-0.3-1.6-2.6-2.7-4.5h0.2
		c5.5-1.1,8.4-5.2,8.1-10.7c-0.5-8.4-7.4-10.4-14.6-10L213,250.9z"/></g><path class="st5" d="M247.5,278.5c0,0,2.1-5.8,7-8.7C254.5,269.9,247.1,270.3,247.5,278.5 M250,264.8c-3.6,2.9-2.3,8.4-2.3,8.4
	C251.1,268.7,250,264.8,250,264.8"/><g><polygon class="st5" points="208.8,312.4 209.9,312.4 211,315.6 212,312.3 212.9,312.2 214.1,315.4 215,312.1 216,312.1 214.6,317 
		213.8,317 212.5,313.9 211.5,317.1 210.6,317.2 	"/><path class="st5" d="M217.6,311.9l1-0.1l2.3,4.7l-1.1,0.1l-0.5-1l-2,0.1l-0.4,1.1l-1.1,0.1L217.6,311.9z M219,314.7l-0.7-1.5
		l-0.6,1.6L219,314.7z"/><path class="st5" d="M221.4,315.9l0.6-0.8c0.5,0.3,0.9,0.5,1.5,0.5c0.4,0,0.7-0.2,0.7-0.5l0,0c0-0.3-0.2-0.4-1-0.6
		c-1-0.2-1.6-0.4-1.7-1.4l0,0c0-0.9,0.6-1.5,1.6-1.5c0.7,0,1.3,0.1,1.8,0.5l-0.5,0.8c-0.4-0.3-0.9-0.4-1.3-0.4s-0.6,0.2-0.6,0.4l0,0
		c0,0.3,0.2,0.4,1.1,0.6c1,0.2,1.5,0.5,1.6,1.4l0,0c0.1,0.9-0.6,1.5-1.7,1.6C222.6,316.6,222,316.3,221.4,315.9"/><polygon class="st5" points="227,312.4 225.5,312.5 225.5,311.6 229.5,311.3 229.5,312.3 228,312.4 228.2,316.2 227.2,316.2 	"/><polygon class="st5" points="230.2,311.3 233.9,311.1 234,312 231.4,312.2 231.5,313.1 233.6,313 233.8,314 231.5,314.1 
		231.5,315.1 234.1,314.9 234.1,315.9 230.5,316.1 	"/><polygon class="st5" points="237.4,314.9 239.8,311.7 237.2,311.8 237.1,310.9 241,310.7 241.1,311.5 238.6,314.7 241.2,314.6 
		241.4,315.5 237.4,315.7 	"/><polygon class="st5" points="242.2,310.7 245.9,310.5 246,311.4 243.4,311.5 243.5,312.5 245.6,312.4 245.8,313.3 243.5,313.4 
		243.5,314.4 246,314.3 246.1,315.2 242.5,315.4 	"/><path class="st5" d="M247,310.4l2.2-0.1c0.6,0,1.1,0.1,1.4,0.4s0.4,0.6,0.5,1.1l0,0c0,0.8-0.3,1.3-0.9,1.5l1.3,1.6l-1.2,0.1
		l-1.1-1.5h-0.8l0.1,1.5l-1.1,0.1L247,310.4z M249.2,312.6c0.5,0,0.8-0.3,0.8-0.7l0,0c0-0.5-0.4-0.7-0.9-0.6l-1,0.1l0.1,1.4
		L249.2,312.6z"/><path class="st5" d="M252,312.5L252,312.5c-0.1-1.4,0.9-2.5,2.4-2.6s2.6,1,2.7,2.3l0,0c0.1,1.4-0.9,2.5-2.4,2.6
		C253,314.9,252,313.9,252,312.5 M255.9,312.3L255.9,312.3c0-0.8-0.7-1.5-1.5-1.4c-0.8,0-1.4,0.7-1.4,1.6l0,0c0,0.8,0.7,1.5,1.5,1.4
		C255.4,313.8,256,313.1,255.9,312.3"/></g><g><path class="st5" d="M266.1,299.8c0.6,0,1.2,0.4,1.2,1.1c0,0.6-0.5,1.2-1.1,1.2s-1.2-0.4-1.2-1.1
		C265.1,300.3,265.6,299.8,266.1,299.8z M266.2,301.8c0.5,0,0.9-0.5,0.9-1s-0.5-0.9-1-0.9s-0.9,0.5-0.9,1
		C265.2,301.5,265.8,301.9,266.2,301.8z M265.8,300.3h0.5c0.3,0,0.5,0.1,0.5,0.3c0,0.2-0.1,0.3-0.3,0.4l0.4,0.6h-0.2l-0.4-0.5H266
		v0.6h-0.2L265.8,300.3z M266,300.8h0.2c0.2,0,0.3,0,0.3-0.2s-0.2-0.2-0.3-0.2h-0.3L266,300.8z"/></g><g><path class="st5" d="M248.5,281.9c0.8,0,1.4,0.5,1.5,1.3c0,0.8-0.6,1.4-1.3,1.5c-0.8,0-1.4-0.5-1.5-1.3
		C247.2,282.5,247.9,281.9,248.5,281.9z M248.8,284.4c0.7,0,1.2-0.6,1.1-1.3c0-0.7-0.6-1.2-1.2-1.1c-0.7,0-1.2,0.6-1.1,1.3
		C247.5,284,248,284.5,248.8,284.4z M248,282.5h0.6c0.4,0,0.6,0.1,0.6,0.4s-0.2,0.4-0.4,0.5l0.5,0.7h-0.2l-0.5-0.7h-0.3v0.7h-0.2
		L248,282.5z M248.4,283.2h0.3c0.2,0,0.4,0,0.4-0.3c0-0.2-0.2-0.2-0.4-0.2h-0.3V283.2z"/></g><path class="st6" d="M201.1,102.2c2.5-4,5.8-5.6,8.9-6.3c3.6-0.7,10.2,1.7,10.2,1.7s-3-5-9.6-4.2c-4.8,0.5-7,3.9-9.7,9.1
	L201.1,102.2z"/><path class="st6" d="M253.6,104.8c-2.4-3.3-5.1-4.5-7.6-4.9c-2.9-0.4-7.8,2-7.8,2s1.8-4.4,7-4.2c3.8,0.2,5.9,3,8.5,7.3L253.6,104.8z
	"/><path class="st6" d="M201.9,156.1c0.6-1.5,2.1-2.2,3.6-2.9c-1.3-2.4-3.7,2.2-3.6,3.4V156.1z"/><path class="st6" d="M255.5,156.1c-0.2-1.6-1.5-2.5-2.7-3.5c1.9-2,3,2.9,2.6,4L255.5,156.1z"/><path class="st6" d="M254,156.3c-1.5,3.2-18.2,19.8-20.8,20.7c-3,1-5.2,1-8.2,0s-17.9-16.1-20.2-19.7c-0.9-1.3-1.2-2.7-1.3-4.1
	l0.6,0.2c0.6,6.4,11.6,11.6,24.9,11.6c13.3,0,24.3-5.1,24.9-11.6l0.6-0.2C254.6,154.3,254.5,155.3,254,156.3L254,156.3z"/><path class="st6" d="M236.6,177.1c-2.2,1.9-4.8,3.5-7.5,3.5c-2.7,0-5.3-1.6-7.5-3.6c2.3,1.5,4.9,2.4,7.5,2.4
	C231.9,179.4,234.4,178.6,236.6,177.1L236.6,177.1z"/></svg>