<?xml version="1.0" encoding="utf-8"?><!-- Generator: Adobe Illustrator 21.0.0, SVG Export Plug-In . SVG Version: 6.00 Build 0)  --><!DOCTYPE svg PUBLIC "-//W3C//DTD SVG 1.1//EN" "http://www.w3.org/Graphics/SVG/1.1/DTD/svg11.dtd"><svg version="1.1" id="Layer_1" xmlns="http://www.w3.org/2000/svg" xmlns:xlink="http://www.w3.org/1999/xlink" x="0px" y="0px" width="400px" height="400px" viewBox="0 0 400 400" style="enable-background:new 0 0 400 400;" xml:space="preserve"><style type="text/css">
	.st0{fill:##ff0000;}
	.st1{fill:url(#SVGID_1_);}
	.st2{fill:url(#SVGID_2_);}
	.st3{fill:url(#SVGID_3_);}
	.st4{fill:url(#SVGID_4_);}
	.st5{fill:#FFFFFF;}
	.st6{fill:none;stroke:#FFFFFF;stroke-width:0.75;stroke-miterlimit:10;}
	.st7{fill:#FFFFFF;stroke:#231F20;stroke-width:0.75;stroke-miterlimit:10;}
	.st8{fill:#1A171B;}
</style><ellipse transform="matrix(0.2533 -0.9674 0.9674 0.2533 -128.2561 501.1506)" class="st0" cx="260.5" cy="333.7" rx="24" ry="16"/><linearGradient id="SVGID_1_" gradientUnits="userSpaceOnUse" x1="200.1415" y1="293.5" x2="200.1415" y2="368.7619" gradientTransform="matrix(1 0 0 -1 0 400)"><stop offset="0" style="stop-color:#72BE44"/><stop offset="0.2072" style="stop-color:#68B13E"/><stop offset="0.5916" style="stop-color:#4F8E2F"/><stop offset="1" style="stop-color:#2F631C"/></linearGradient><path class="st1" d="M107.1,91.9c0,0-22.3-24.6-14.6-29.9c7.6-5.3,14.6-2.3,34-5.3c19.3-2.9,80.3-12.9,91.4-16.4
	c11.1-3.5,25.8-10.5,39.3-8.8c13.5,1.7,21.1,12.9,27,22.9s25.2,43.9,25.2,43.9l-2.9,8.2L107.1,91.9z"/><linearGradient id="SVGID_2_" gradientUnits="userSpaceOnUse" x1="221.9914" y1="357" x2="221.9914" y2="31.2" gradientTransform="matrix(-1 0 0 -1 421.9414 400)"><stop offset="0" style="stop-color:#72BE44"/><stop offset="0.4583" style="stop-color:#71BC43"/><stop offset="0.6234" style="stop-color:#6CB540"/><stop offset="0.7411" style="stop-color:#63AA3B"/><stop offset="0.8363" style="stop-color:#569934"/><stop offset="0.9178" style="stop-color:#46832A"/><stop offset="0.9886" style="stop-color:#33681E"/><stop offset="1" style="stop-color:#2F631C"/></linearGradient><polygon class="st2" points="91.5,203.1 101.9,223.1 117.1,355.5 229.2,368.8 247.6,299.4 285.2,223.1 295.9,202.9 310.8,105.5 
	262,43 89.1,75 "/><linearGradient id="SVGID_3_" gradientUnits="userSpaceOnUse" x1="151.8914" y1="357.2" x2="151.8914" y2="31.5" gradientTransform="matrix(-1 0 0 -1 421.9414 400)"><stop offset="0" style="stop-color:#72BE44"/><stop offset="1" style="stop-color:#2F631C"/></linearGradient><polygon class="st3" points="262,42.8 237.3,202.6 248,223.1 229.2,368.5 252.5,358.5 261.3,316 274.8,302.5 285.3,222.9 
	295.9,202.9 310.9,105.2 "/><linearGradient id="SVGID_4_" gradientUnits="userSpaceOnUse" x1="162.5383" y1="359.6684" x2="162.5383" y2="363.7715" gradientTransform="matrix(0.9845 -0.1754 -0.2197 -1.2337 92.898 523.6699)"><stop offset="0" style="stop-color:#72BE44"/><stop offset="0.2072" style="stop-color:#68B13E"/><stop offset="0.5916" style="stop-color:#4F8E2F"/><stop offset="1" style="stop-color:#2F631C"/></linearGradient><polygon class="st4" points="199.3,46.9 148.5,56 147.6,50.9 198.4,41.9 "/><ellipse transform="matrix(0.3233 -0.9463 0.9463 0.3233 -137.8068 476.5676)" class="st5" cx="264.3" cy="334.6" rx="4.4" ry="2.6"/><path class="st5" d="M268.9,341.9c0,0-0.9,5.3-6.4,7.2c-4.9,1.6-7.4-2.9-5.8-2.1C262.8,350.3,268.5,344.1,268.9,341.9z"/><path class="st6" d="M285.2,223"/><path class="st6" d="M295.9,202.8"/><ellipse transform="matrix(0.9978 -6.659687e-02 6.659687e-02 0.9978 -8.3331 10.6319)" class="st7" cx="155.3" cy="130.3" rx="14.4" ry="16.6"/><ellipse transform="matrix(0.9978 -6.659573e-02 6.659573e-02 0.9978 -7.8594 12.636)" class="st7" cx="185.6" cy="124.2" rx="14.4" ry="17.8"/><g><ellipse transform="matrix(0.983 -0.1837 0.1837 0.983 -20.3903 36.2941)" class="st8" cx="185.7" cy="128.2" rx="5.8" ry="5.8"/></g><g><ellipse transform="matrix(0.244 -0.9698 0.9698 0.244 -11.4714 249.2195)" class="st8" cx="154.1" cy="132" rx="5.8" ry="5.8"/></g><path class="st5" d="M137,294.6l4.1,0.2c2.3,0.1,4.3,0.9,4.2,3.6c-0.1,1.7-1.1,2.9-2.9,3l2.9,5.3l-2.5-0.1l-2.5-5.1l-1.5-0.1l-0.2,5
	l-2.1-0.1L137,294.6z M140.5,299.7c1.2,0.1,2.6,0,2.6-1.5c0.1-1.4-1.2-1.6-2.3-1.7l-1.8-0.1l-0.2,3.2L140.5,299.7z"/><path class="st5" d="M148.5,303.6c0.1,1.2,0.9,1.9,2,2c1,0,1.7-0.4,2.2-1l1.4,1.1c-1,1.1-2.2,1.5-3.4,1.4c-2.4-0.1-4.2-1.9-4.1-4.4
	c0.1-2.5,2.1-4.1,4.5-4c2.2,0.1,3.6,1.7,3.5,4.5v0.5L148.5,303.6z M152.6,302.3c0-1.2-0.7-1.9-1.9-2s-1.9,0.7-2.1,1.8L152.6,302.3z"/><path class="st5" d="M161.9,302c-0.4-0.5-0.9-0.8-1.5-0.9c-1.5-0.1-2.4,1-2.4,2.3c-0.1,1.2,0.8,2.4,2.2,2.5c0.6,0,1.2-0.2,1.6-0.7
	l1.3,1.5c-0.8,0.8-2.2,1-2.9,1c-2.4-0.1-4.2-1.9-4.1-4.4c0.1-2.5,2.1-4.1,4.5-4c1,0,2.1,0.5,2.8,1.3L161.9,302z"/><path class="st5" d="M168.5,299.7c2.4,0.1,4.2,1.9,4.1,4.4c-0.1,2.5-2.1,4.1-4.5,4s-4.2-1.9-4.1-4.4
	C164.1,301.2,166.1,299.6,168.5,299.7 M168.2,306.2c1.5,0.1,2.4-1,2.4-2.3c0.1-1.2-0.8-2.4-2.2-2.5c-1.5-0.1-2.4,1-2.4,2.3
	C165.9,305,166.7,306.2,168.2,306.2"/><rect x="169.3" y="301" transform="matrix(4.721488e-02 -0.9989 0.9989 4.721488e-02 -134.3322 463.0959)" class="st5" width="12.5" height="2"/><path class="st5" d="M182.9,300.4c2.4,0.1,4.2,1.9,4.1,4.4c-0.1,2.5-2.1,4.1-4.5,4s-4.2-1.9-4.1-4.4
	C178.5,301.8,180.5,300.3,182.9,300.4 M182.6,306.9c1.5,0.1,2.4-1,2.4-2.3c0.1-1.2-0.8-2.4-2.2-2.5c-1.5-0.1-2.4,1-2.4,2.3
	C180.3,305.7,181.1,306.9,182.6,306.9"/><polygon class="st5" points="198.4,301.3 200.6,301.4 202.5,307 202.6,307 204.8,301.6 206.9,301.7 201.7,313.1 199.6,313 
	201.4,309.5 "/><path class="st5" d="M197.2,301.3l-1.9-0.1l-0.1,1.2l0,0c-0.5-1-1.6-1.5-2.7-1.5c-2.4-0.1-4,1.6-4.1,4c-0.1,2.2,1.4,4.1,3.8,4.3
	c1,0,2-0.3,2.7-1l0,0l-0.1,1.1c0,0.5-0.2,0.9-0.5,1.2v0.1c-0.6,0.7-1.7,1.1-2.7,1c-1.7-0.1-2.9-1.1-3.5-2.4c0.1,2.3,1.8,3.9,4.1,4
	c2.4,0.1,4.4-1.5,4.5-4C196.9,309,197.2,301.3,197.2,301.3 M192.7,307.3c-1.3-0.1-2.3-1.2-2.2-2.4c0.1-1.4,1.1-2.3,2.5-2.3
	c1.4,0.1,2.3,1.1,2.2,2.4C195.1,306.4,194.1,307.4,192.7,307.3"/><g><path id="SVGID_5_" class="st5" d="M165.2,259.6l4.9,0.2c3.5,0.2,7.6,0.9,7.4,5.4c-0.2,4.9-4.7,5-8.4,4.8l-4.3-0.2L165.2,259.6z
		 M158.8,253.5l-1.7,35.6l6.7,0.3l0.7-14l3.7,0.2l4.2,9.2l0,0c1.3,2.7,3.9,4.6,7,5.2c4,0.7,6.8-0.7,8.8-3.6
		c2.9-4.3,1.6-9.9-0.9-11.8c0,0,1.1,3.1,0.7,5.7c-0.2,2.2-1.7,4.1-3.9,4.6c-2.1,0.4-4.2-0.8-5.3-2.4c-0.5-0.7-0.9-1.5-1.5-2.4
		c-0.2-0.3-1.3-2.8-2.2-4.7h0.2c5.6-0.5,8.9-4.4,9.2-9.8c0.4-8.4-6.3-11.1-13.5-11.4L158.8,253.5z"/></g><path class="st5" d="M190.3,284.5c0,0,2.7-5.6,7.8-7.9C198.1,276.6,190.7,276.4,190.3,284.5 M194.1,271.1c-3.8,2.5-3.2,8.1-3.2,8.1
	C194.8,275.1,194.1,271.1,194.1,271.1"/><polygon class="st5" points="148.3,314.4 149.4,314.4 150.2,317.7 151.4,314.5 152.3,314.6 153.3,317.9 154.4,314.7 155.5,314.7 
	153.6,319.5 152.7,319.4 151.8,316.2 150.6,319.3 149.7,319.3 "/><path class="st5" d="M157.2,314.8h1l1.8,4.9l-1.1-0.1l-0.4-1.1l-2-0.1l-0.5,1.1l-1.1-0.1L157.2,314.8z M158.2,317.6l-0.6-1.6
	l-0.7,1.5L158.2,317.6z"/><path class="st5" d="M160.4,319.1l0.7-0.7c0.4,0.4,0.9,0.6,1.4,0.7c0.4,0,0.7-0.1,0.7-0.4l0,0c0-0.3-0.1-0.4-0.9-0.7
	c-0.9-0.3-1.6-0.6-1.5-1.5l0,0c0-0.9,0.8-1.4,1.7-1.4c0.7,0,1.3,0.3,1.7,0.7l-0.6,0.8c-0.4-0.3-0.8-0.5-1.2-0.5s-0.6,0.2-0.6,0.4
	l0,0c0,0.3,0.2,0.4,1,0.7c1,0.3,1.5,0.7,1.4,1.5l0,0c0,0.9-0.8,1.4-1.8,1.4C161.6,319.9,160.9,319.6,160.4,319.1"/><polygon class="st5" points="166.4,316.2 164.9,316.1 165,315.2 168.9,315.4 168.9,316.3 167.4,316.3 167.3,320.1 166.2,320 "/><polygon class="st5" points="169.8,315.4 173.4,315.6 173.3,316.5 170.8,316.4 170.7,317.4 173,317.5 172.9,318.4 170.7,318.3 
	170.6,319.3 173.2,319.4 173.2,320.4 169.6,320.2 "/><polygon class="st5" points="176.4,319.7 179.2,316.8 176.6,316.7 176.7,315.7 180.6,315.9 180.5,316.7 177.8,319.7 180.4,319.8 
	180.4,320.7 176.4,320.5 "/><polygon class="st5" points="181.7,316 185.4,316.2 185.3,317.1 182.7,317 182.7,317.9 185,318 184.9,319 182.7,318.9 182.6,319.9 
	185.2,320 185.2,320.9 181.5,320.8 "/><path class="st5" d="M186.5,316.2l2.2,0.1c0.6,0,1.1,0.2,1.4,0.6c0.3,0.3,0.4,0.7,0.4,1.1l0,0c0,0.8-0.5,1.2-1.1,1.4l1.1,1.8
	l-1.2-0.1l-1-1.6h-0.8l-0.1,1.5l-1-0.1L186.5,316.2z M188.5,318.6c0.5,0,0.8-0.2,0.8-0.6l0,0c0-0.5-0.3-0.7-0.8-0.7h-1l-0.1,1.4
	L188.5,318.6z"/><path class="st5" d="M191.2,318.8L191.2,318.8c0.1-1.4,1.2-2.4,2.7-2.4c1.5,0.1,2.5,1.2,2.4,2.6l0,0c-0.1,1.4-1.2,2.4-2.7,2.3
	C192.1,321.3,191.1,320.2,191.2,318.8 M195.1,319L195.1,319c0-0.8-0.5-1.5-1.4-1.6c-0.8,0-1.5,0.6-1.5,1.4l0,0
	c0,0.8,0.5,1.5,1.4,1.6S195.1,319.8,195.1,319"/><path class="st5" d="M206.6,307.6c0.6,0,1.1,0.5,1.1,1.2c0,0.6-0.6,1.1-1.2,1.1c-0.6,0-1.1-0.5-1.1-1.2
	C205.5,308,206,307.5,206.6,307.6z M206.5,309.6c0.5,0,1-0.4,1-0.9s-0.4-1-0.9-1s-1,0.4-1,0.9C205.6,309.2,206,309.6,206.5,309.6z
	 M206.2,308h0.5c0.3,0,0.4,0.1,0.4,0.4c0,0.2-0.2,0.3-0.4,0.3l0.3,0.6h-0.2l-0.3-0.6h-0.2v0.6h-0.2L206.2,308z M206.3,308.6h0.2
	c0.2,0,0.3,0,0.4-0.2c0-0.2-0.1-0.2-0.3-0.2h-0.3L206.3,308.6z"/><path class="st5" d="M191,288c0.8,0,1.4,0.7,1.3,1.5c0,0.8-0.7,1.4-1.5,1.3c-0.8,0-1.4-0.7-1.3-1.5C189.5,288.5,190.2,287.9,191,288
	z M190.8,290.6c0.7,0,1.2-0.5,1.2-1.1c0-0.7-0.5-1.2-1.1-1.2c-0.7,0-1.2,0.5-1.2,1.1S190.2,290.5,190.8,290.6z M190.4,288.5h0.6
	c0.4,0,0.6,0.2,0.5,0.5c0,0.3-0.2,0.4-0.4,0.4l0.4,0.7h-0.2l-0.4-0.7h-0.3v0.7h-0.2L190.4,288.5z M190.6,289.3h0.3
	c0.2,0,0.4,0,0.4-0.2s-0.2-0.3-0.4-0.3h-0.3V289.3z"/><path class="st8" d="M201.2,102.7c0,0-1.8-9.3-16.3-10.5s-14.3,8.8-11.3,6.7C184.8,91,199.4,99.1,201.2,102.7z"/><path class="st8" d="M139.9,112.8c0,0,0.5-9.5,14.8-12.6c14.2-3.1,15.4,6.8,12.1,5.1C154.6,99.1,141.2,109,139.9,112.8z"/><path class="st8" d="M191.7,162.4v0.1c0.9,12.5-7.8,23.6-19.8,24.8c-11.6,1.2-23-8-24.3-20.5l0.6,0.2c1.2,7.1,11.3,11.8,22.8,10.7
	s20.4-7.8,20.2-15L191.7,162.4L191.7,162.4z"/><path class="st8" d="M145.9,169.4c0,0,1.1-2.4,3.1-2.6C150.9,166.5,147.3,163.7,145.9,169.4z"/><path class="st8" d="M193.8,164.6c0,0-1.5-2.2-3.5-2S191.3,159.3,193.8,164.6z"/></svg>